<?xml version="1.0" encoding="UTF-8" standalone="no"?>
<svg
   xmlns:dc="http://purl.org/dc/elements/1.1/"
   xmlns:cc="http://creativecommons.org/ns#"
   xmlns:rdf="http://www.w3.org/1999/02/22-rdf-syntax-ns#"
   xmlns:svg="http://www.w3.org/2000/svg"
   xmlns="http://www.w3.org/2000/svg"
   xmlns:sodipodi="http://sodipodi.sourceforge.net/DTD/sodipodi-0.dtd"
   xmlns:inkscape="http://www.inkscape.org/namespaces/inkscape"
   viewBox="0 0 22 22"
   version="1.1"
   id="svg6"
   sodipodi:docname="system-run.svg"
   inkscape:version="0.92.1 r15371">
  <metadata
     id="metadata10">
    <rdf:RDF>
      <cc:Work
         rdf:about="">
        <dc:format>image/svg+xml</dc:format>
        <dc:type
           rdf:resource="http://purl.org/dc/dcmitype/StillImage" />
      </cc:Work>
    </rdf:RDF>
  </metadata>
  <sodipodi:namedview
     pagecolor="#ffffff"
     bordercolor="#666666"
     borderopacity="1"
     objecttolerance="10"
     gridtolerance="10"
     guidetolerance="10"
     inkscape:pageopacity="0"
     inkscape:pageshadow="2"
     inkscape:window-width="3840"
     inkscape:window-height="2035"
     id="namedview8"
     showgrid="false"
     inkscape:zoom="42.909091"
     inkscape:cx="6.0942797"
     inkscape:cy="11"
     inkscape:window-x="-13"
     inkscape:window-y="-13"
     inkscape:window-maximized="1"
     inkscape:current-layer="svg6" />
  <defs
     id="defs3051">
    <style
       type="text/css"
       id="current-color-scheme">
      .ColorScheme-Text {
        color:#f2f2f2;
      }
      </style>
  </defs>
  <path
     style="fill:currentColor;fill-opacity:1;stroke:none"
     d="M 3 3 L 3 7 L 3 18 L 3 19 L 13 19 L 19 19 L 19 18 L 19 13 L 19 7 L 19 3 L 3 3 z M 4 7 L 18 7 L 18 13 L 18 18 L 13 18 L 4 18 L 4 7 z M 9 10 L 9 16 L 14 13 L 9 10 z "
     class="ColorScheme-Text"
     id="path4" />
  <path
     style="opacity:0.75;fill:#ffffff;fill-opacity:1;stroke:#000000;stroke-width:0.02330508;stroke-opacity:0.30147059"
     d="M 2.9970339,11.002331 V 2.9970339 h 8.0052971 8.005296 v 8.0052971 8.005296 H 11.002331 2.9970339 Z m 15.0026971,1.497351 0.0059,-5.4941735 H 11.002379 3.9991526 v 5.4844635 c 0,3.016455 0.00701,5.491472 0.015575,5.500038 0.00857,0.0086 3.1573745,0.01294 6.9973514,0.0097 l 6.981777,-0.0059 z"
     id="path4487"
     inkscape:connector-curvature="0" />
  <path
     style="opacity:0.75;fill:#ffffff;fill-opacity:1;stroke:#000000;stroke-width:0.02330508;stroke-opacity:0.30147059"
     d="m 8.9980932,13.007943 c 0,-1.647843 0.0078,-2.996079 0.017339,-2.996079 0.029107,0 4.9699488,2.970113 4.9699488,2.98761 0,0.01141 -4.7657922,2.883457 -4.9698091,2.994992 -0.00961,0.0053 -0.017479,-1.338679 -0.017479,-2.986523 z"
     id="path4489"
     inkscape:connector-curvature="0" />
  <path
     style="opacity:0.75;fill:#ffffff;fill-opacity:1;stroke:#000000;stroke-width:0.02330508;stroke-opacity:0.30147059"
     d="M 3.0086865,11.002331 V 3.020339 h 7.9936445 7.993644 v 7.981992 7.981991 H 11.002331 3.0086865 Z m 11.4738875,7.010971 3.534587,-0.01551 V 12.489997 6.9822034 H 11.002282 3.9874029 l 0.00587,5.5058266 0.00587,5.505826 0.7457627,0.01215 c 1.2398668,0.02019 5.9886334,0.02375 9.7376584,0.0073 z"
     id="path4491"
     inkscape:connector-curvature="0" />
  <path
     style="opacity:0.75;fill:#ffffff;fill-opacity:1;stroke:#000000;stroke-width:0.02330508;stroke-opacity:0.30147059"
     d="m 9.0213983,13.009061 c 0,-2.03326 0.00756,-2.950586 0.024316,-2.950586 0.04053,0 4.7992307,2.859234 4.8658847,2.923635 0.02561,0.02475 -0.02364,0.0628 -0.279662,0.216079 -0.170913,0.102323 -1.264784,0.76036 -2.430823,1.462307 -1.166041,0.701946 -2.1334934,1.281415 -2.1498947,1.287709 -0.024127,0.0093 -0.02982,-0.551884 -0.029821,-2.939144 z"
     id="path4493"
     inkscape:connector-curvature="0" />
</svg>
